<svg xmlns="http://www.w3.org/2000/svg" version="1.1" xmlns:xlink="http://www.w3.org/1999/xlink" xmlns:svgjs="http://svgjs.dev/svgjs" width="1500" height="1500" viewBox="0 0 1500 1500"><rect width="1500" height="1500" fill="#ffffff"></rect><g transform="matrix(0.6666666666666666,0,0,0.6666666666666666,249.39393939393938,438.5856950067477)"><svg viewBox="0 0 396 247" data-background-color="#dfdad6" preserveAspectRatio="xMidYMid meet" height="935" width="1500" xmlns="http://www.w3.org/2000/svg" xmlns:xlink="http://www.w3.org/1999/xlink"><g id="tight-bounds" transform="matrix(1,0,0,1,0.2400000000000091,-0.09999999999999432)"><svg viewBox="0 0 395.52 247.2" height="247.2" width="395.52"><g><svg></svg></g><g><svg viewBox="0 0 395.52 247.2" height="247.2" width="395.52"><g transform="matrix(1,0,0,1,75.54432,91.74382454976381)"><svg viewBox="0 0 244.43135999999998 63.71235090047236" height="63.71235090047236" width="244.43135999999998"><g><svg viewBox="0 0 244.43135999999998 63.71235090047236" height="63.71235090047236" width="244.43135999999998"><g><svg viewBox="0 0 244.43135999999998 63.71235090047236" height="63.71235090047236" width="244.43135999999998"><g><svg viewBox="0 0 244.43135999999998 63.71235090047236" height="63.71235090047236" width="244.43135999999998"><g id="textblocktransform"><svg viewBox="0 0 244.43135999999998 63.71235090047236" height="63.71235090047236" width="244.43135999999998" id="textblock"><g><svg viewBox="0 0 244.43135999999998 34.363397671116154" height="34.363397671116154" width="244.43135999999998"><g transform="matrix(1,0,0,1,0,0)"><svg width="244.43135999999998" viewBox="0.63 -33.33 244.48000000000002 34.37" height="34.363397671116154" data-palette-color="#e33e33"><path d="M4.62 0L0.63 0 13.85-32.29 13.92-32.29 27.15 0 22.95 0 19.27-9.27 8.33-9.27 4.62 0ZM12.12-18.75L9.65-12.57 17.95-12.57 15.49-18.75Q15.03-19.93 14.62-21.08 14.2-22.22 13.78-23.82L13.78-23.82Q13.37-22.22 12.99-21.09 12.6-19.97 12.12-18.75L12.12-18.75ZM34.86 0L31.11 0 31.11-20.83 34.58-20.83 34.58-17.01Q35.69-18.85 37.53-19.95 39.37-21.04 41.91-21.04L41.91-21.04 42.84-17.29Q42.19-17.5 41.32-17.5L41.32-17.5Q38.4-17.5 36.63-15.64 34.86-13.78 34.86-10.35L34.86-10.35 34.86 0ZM64.86-20.83L54.34 1.04 43.81-20.83 48.09-20.83 52.32-11.81Q52.91-10.59 53.43-9.41 53.95-8.23 54.44-6.53L54.44-6.53Q54.96-8.23 55.5-9.43 56.04-10.63 56.59-11.81L56.59-11.81 60.86-20.83 64.86-20.83ZM77.53 0.28L77.53 0.28Q74.68 0.28 72.32-1.16 69.96-2.6 68.55-5.03 67.15-7.47 67.15-10.42L67.15-10.42Q67.15-13.37 68.55-15.8 69.96-18.23 72.32-19.67 74.68-21.11 77.53-21.11L77.53-21.11Q79.68-21.11 81.57-20.31 83.46-19.51 84.85-18.09L84.85-18.09 84.85-20.83 88.33-20.83 88.33 0 84.85 0 84.85-2.74Q83.46-1.35 81.57-0.54 79.68 0.28 77.53 0.28ZM78.01-3.13L78.01-3.13Q79.99-3.13 81.61-4.11 83.22-5.1 84.18-6.75 85.13-8.4 85.13-10.42L85.13-10.42Q85.13-12.43 84.18-14.08 83.22-15.73 81.61-16.72 79.99-17.71 78.01-17.71L78.01-17.71Q76.03-17.71 74.42-16.72 72.81-15.73 71.85-14.08 70.9-12.43 70.9-10.42L70.9-10.42Q70.9-8.4 71.85-6.75 72.81-5.1 74.42-4.11 76.03-3.13 78.01-3.13ZM98.74 0L94.99 0 94.99-33.33 98.74-33.33 98.74 0ZM122.49-27.71L114.15-27.71 114.15-31.25 134.78-31.25 134.78-27.71 126.44-27.71 126.44 0 122.49 0 122.49-27.71ZM143.52 0L139.77 0 139.77-20.83 143.25-20.83 143.25-17.01Q144.36-18.85 146.2-19.95 148.04-21.04 150.57-21.04L150.57-21.04 151.51-17.29Q150.85-17.5 149.98-17.5L149.98-17.5Q147.07-17.5 145.3-15.64 143.52-13.78 143.52-10.35L143.52-10.35 143.52 0ZM165.33 0.42L165.33 0.42Q162.06 0.42 159.48-1.04 156.89-2.5 155.41-5.02 153.94-7.53 153.94-10.63L153.94-10.63Q153.94-13.58 155.36-15.99 156.79-18.4 159.2-19.83 161.61-21.25 164.53-21.25L164.53-21.25Q167.41-21.25 169.81-19.88 172.2-18.51 173.63-16.18 175.05-13.85 175.05-10.9L175.05-10.9 175.05-9.38 161.44-9.38Q160.54-9.38 159.6-9.44 158.66-9.51 157.76-9.65L157.76-9.65Q158.14-6.88 160.28-5 162.41-3.13 165.36-3.13L165.36-3.13Q167.34-3.13 169.04-4.03 170.74-4.93 171.79-6.42L171.79-6.42 172.83-2.15Q171.33-0.94 169.41-0.26 167.48 0.42 165.33 0.42ZM157.65-12.19L157.65-12.19Q159.53-12.5 161.44-12.5L161.44-12.5 168.35-12.5Q169.11-12.5 169.86-12.45 170.61-12.4 171.37-12.33L171.37-12.33Q170.88-14.76 168.94-16.34 166.99-17.92 164.53-17.92L164.53-17.92Q161.99-17.92 160.08-16.23 158.17-14.55 157.65-12.19ZM183.8 0L180.05 0 180.05-20.83 183.52-20.83 183.52-17.47Q184.67-19.31 186.49-20.28 188.31-21.25 190.43-21.25L190.43-21.25Q192.65-21.25 194.54-20.16 196.44-19.06 197.62-17 198.8-14.93 198.8-11.98L198.8-11.98 198.8 0 195.05 0 195.05-11.46Q195.05-13.92 193.57-15.82 192.1-17.71 189.42-17.71L189.42-17.71Q187.23-17.71 185.52-16.13 183.8-14.55 183.8-11.56L183.8-11.56 183.8 0ZM213.97 0.28L213.97 0.28Q211.12 0.28 208.76-1.16 206.4-2.6 204.99-5.03 203.59-7.47 203.59-10.42L203.59-10.42Q203.59-13.37 204.99-15.8 206.4-18.23 208.76-19.67 211.12-21.11 213.97-21.11L213.97-21.11Q216.02-21.11 217.82-20.38 219.63-19.65 221.02-18.37L221.02-18.37 221.02-33.33 224.77-33.33 224.77 0 221.29 0 221.29-2.74Q219.91-1.35 218.01-0.54 216.12 0.28 213.97 0.28ZM214.45-3.13L214.45-3.13Q216.43-3.13 218.05-4.11 219.66-5.1 220.62-6.75 221.57-8.4 221.57-10.42L221.57-10.42Q221.57-12.43 220.62-14.08 219.66-15.73 218.05-16.72 216.43-17.71 214.45-17.71L214.45-17.71Q212.48-17.71 210.86-16.72 209.25-15.73 208.29-14.08 207.34-12.43 207.34-10.42L207.34-10.42Q207.34-8.4 208.29-6.75 209.25-5.1 210.86-4.11 212.48-3.13 214.45-3.13ZM244.56 0L229.49 0 239.35-17.5 230.11-17.5 230.11-20.83 245.11-20.83 235.25-3.33 244.56-3.33 244.56 0Z" opacity="1" transform="matrix(1,0,0,1,0,0)" fill="#000000" class="wordmark-text-0" data-fill-palette-color="primary" id="text-0"></path></svg></g></svg></g><g transform="matrix(1,0,0,1,0,42.47577113972257)"><svg viewBox="0 0 244.43135999999998 21.236579760749784" height="21.236579760749784" width="244.43135999999998"><g transform="matrix(1,0,0,1,0,0)"><svg width="244.43135999999998" viewBox="1.42 -34.86 404.640416666664 35.15" height="21.236579760749784" data-palette-color="#e33e33"><path d="M11.72-11.16L10.57 0 4.3 0 1.42-34.86 4.83-34.86 5.76-21.29 6.96-3.13 8.13-3.13 9.35-21.29 10.69-34.62 16.72-34.62 18.14-21.29 19.21-3.13 20.39-3.13 21.63-21.29 22.63-34.86 26-34.86 23.07 0 16.82 0 15.63-11.16 14.38-31.62 13.04-31.62 11.72-11.16ZM38.37 0.27L38.37 0.27Q35.39 0.27 33.96-0.9 32.53-2.08 32.29-4.57L32.29-4.57Q32.27-5.05 32.23-5.54 32.19-6.03 32.24-6.49L32.24-6.49Q32.41-8.67 33.61-10.14 34.8-11.62 38.15-12.84L38.15-12.84Q39.52-13.33 41.03-13.72 42.54-14.11 44.03-14.48L44.03-14.48 44.03-18.99Q44.03-20.19 43.13-20.76 42.23-21.34 39.98-21.34L39.98-21.34Q38.03-21.34 37.01-20.85 36-20.36 35.9-19.07L35.9-19.07Q35.85-18.46 35.85-17.32 35.85-16.19 35.9-15.41L35.9-15.41 32.85-15.41Q32.8-16.02 32.75-16.99 32.7-17.97 32.78-18.73L32.78-18.73Q32.9-21.56 34.62-22.81 36.34-24.07 40.1-24.07L40.1-24.07Q44.03-24.07 45.56-22.71 47.08-21.34 47.11-18.21L47.11-18.21 47.11 0 44.03 0 44.03-2.25 43.35-2.25Q42.74-1.03 41.6-0.38 40.47 0.27 38.37 0.27ZM39.15-2.37L39.15-2.37Q42.67-2.37 44.01-4.47L44.01-4.47 44.01-11.87Q42.84-11.62 41.6-11.29 40.37-10.96 38.71-10.4L38.71-10.4Q36.73-9.67 36.07-8.72 35.41-7.76 35.32-6.49L35.32-6.49Q35.34-6.13 35.35-5.7 35.37-5.27 35.41-4.81L35.41-4.81Q35.59-3.64 36.59-3 37.59-2.37 39.15-2.37ZM57.91-19.19L57.91 0 54.77 0 54.77-23.75 57.91-23.75 57.91-21.53 58.67-21.53Q59.43-22.75 60.66-23.41 61.89-24.07 63.77-24.07L63.77-24.07Q66.53-24.07 67.88-22.86 69.22-21.66 69.22-18.82L69.22-18.82 69.22 0 66.09 0 66.09-19.09Q66.09-20.31 65.32-20.86 64.56-21.41 62.85-21.41L62.85-21.41Q61.14-21.41 59.84-20.83 58.55-20.24 57.91-19.19L57.91-19.19ZM84.32 0.29L84.32 0.29Q80.51 0.29 79.18-0.98 77.85-2.25 77.85-5.13L77.85-5.13 77.85-21.02 75.51-21.02 75.51-23.75 77.92-23.75 77.92-30.49 81.02-30.49 81.02-23.75 86.4-23.75 86.4-21.02 81-21.02 81-4.79Q81-3.44 81.56-2.93 82.12-2.42 84.39-2.42L84.39-2.42Q85.32-2.42 85.82-2.45 86.32-2.49 86.98-2.51L86.98-2.51 86.98 0.1Q86.4 0.2 85.71 0.24 85.03 0.29 84.32 0.29ZM113.6-31.74L113.6 0 110.2 0 110.2-31.74 103.54-31.74 103.54-34.86 120.29-34.86 120.29-31.74 113.6-31.74ZM129.16-19.19L129.16 0 126.01 0 126.01-23.75 129.16-23.75 129.16-21.53 129.85-21.53Q130.48-22.75 131.53-23.41 132.58-24.07 134.14-24.07L134.14-24.07Q136.49-24.07 137.62-22.84 138.76-21.61 138.76-18.58L138.76-18.58Q138.76-17.92 138.71-17.02 138.66-16.11 138.56-15.41L138.56-15.41 135.54-15.41Q135.59-15.65 135.6-16.26 135.61-16.87 135.62-17.48 135.63-18.09 135.63-18.31L135.63-18.31Q135.63-20.12 135.02-20.76 134.41-21.41 133.07-21.41L133.07-21.41Q130.21-21.41 129.16-19.19L129.16-19.19ZM153.01 0.29L153.01 0.29Q148.98 0.29 147.26-0.98 145.54-2.25 145.41-5.13L145.41-5.13Q145.32-6.93 145.28-9.38 145.24-11.82 145.28-14.28 145.32-16.75 145.41-18.58L145.41-18.58Q145.54-21.53 147.31-22.8 149.08-24.07 153.01-24.07L153.01-24.07Q156.72-24.07 158.38-22.83 160.04-21.58 160.21-18.73L160.21-18.73Q160.26-17.87 160.31-15.75 160.36-13.62 160.16-11.23L160.16-11.23 148.47-11.23Q148.47-9.69 148.49-8.11 148.51-6.52 148.59-4.81L148.59-4.81Q148.61-3.47 149.61-2.95 150.61-2.44 152.91-2.44L152.91-2.44Q155.18-2.44 156.11-2.95 157.04-3.47 157.13-4.81L157.13-4.81Q157.21-6.15 157.13-8.47L157.13-8.47 160.16-8.47Q160.28-7.76 160.27-6.82 160.26-5.88 160.21-5.13L160.21-5.13Q160.04-2.25 158.46-0.98 156.89 0.29 153.01 0.29ZM148.47-13.82L148.47-13.82 157.18-13.82Q157.23-15.48 157.23-16.99 157.23-18.51 157.13-19.07L157.13-19.07Q157.04-20.29 156.08-20.81 155.13-21.34 153.01-21.34L153.01-21.34Q150.64-21.34 149.63-20.81 148.61-20.29 148.59-19.07L148.59-19.07Q148.51-17.65 148.48-16.36 148.44-15.06 148.47-13.82ZM170.62-19.19L170.62 0 167.47 0 167.47-23.75 170.62-23.75 170.62-21.53 171.38-21.53Q172.14-22.75 173.37-23.41 174.6-24.07 176.48-24.07L176.48-24.07Q179.24-24.07 180.58-22.86 181.93-21.66 181.93-18.82L181.93-18.82 181.93 0 178.8 0 178.8-19.09Q178.8-20.31 178.03-20.86 177.26-21.41 175.56-21.41L175.56-21.41Q173.85-21.41 172.55-20.83 171.26-20.24 170.62-19.19L170.62-19.19ZM194.78 0.29L194.78 0.29Q192.03 0.29 190.68-0.93 189.34-2.15 189.27-4.96L189.27-4.96Q189.17-6.96 189.13-9.35 189.1-11.74 189.13-14.21 189.17-16.67 189.27-18.82L189.27-18.82Q189.34-21.66 190.72-22.86 192.1-24.07 194.83-24.07L194.83-24.07Q196.86-24.07 198.02-23.45 199.18-22.83 200.03-21.53L200.03-21.53 200.67-21.53 200.67-31.69 203.79-31.69 203.79 0 200.67 0 200.67-2.25 199.96-2.25Q199.13-1.03 197.97-0.37 196.81 0.29 194.78 0.29ZM195.69-2.37L195.69-2.37Q199.37-2.37 200.67-4.59L200.67-4.59 200.67-19.19Q199.4-21.41 195.71-21.41L195.71-21.41Q194-21.41 193.23-20.86 192.46-20.31 192.44-19.09L192.44-19.09Q192.29-15.43 192.32-11.66 192.34-7.89 192.44-4.69L192.44-4.69Q192.49-3.49 193.23-2.93 193.98-2.37 195.69-2.37ZM224.05-2.71L224.05 0 209.96 0 209.96-2.29 221.04-21.07 210.25-21.04 210.25-23.73 224.53-23.75 224.53-21.44 213.35-2.71 224.05-2.71ZM247.61-21.02L247.61 0 244.49 0 244.49-21.02 242.22-21.02 242.22-23.75 244.49-23.75 244.49-26.61Q244.49-29.52 245.9-30.77 247.32-32.03 250.56-32.03L250.56-32.03Q251.25-32.03 252.09-31.96 252.93-31.88 253.59-31.76L253.59-31.76 253.59-29.13Q252.27-29.2 250.64-29.2L250.64-29.2Q248.98-29.2 248.29-28.66 247.61-28.13 247.61-26.88L247.61-26.88 247.61-23.75 252.81-23.75 252.81-21.02 247.61-21.02ZM262.47-31.69L262.47-28.17 259.32-28.17 259.32-31.69 262.47-31.69ZM262.47-23.75L262.47 0 259.3 0 259.3-23.75 262.47-23.75ZM273.93-19.19L273.93 0 270.78 0 270.78-23.75 273.93-23.75 273.93-21.53 274.69-21.53Q275.45-22.75 276.68-23.41 277.91-24.07 279.79-24.07L279.79-24.07Q282.55-24.07 283.89-22.86 285.24-21.66 285.24-18.82L285.24-18.82 285.24 0 282.11 0 282.11-19.09Q282.11-20.31 281.34-20.86 280.57-21.41 278.87-21.41L278.87-21.41Q277.16-21.41 275.86-20.83 274.57-20.24 273.93-19.19L273.93-19.19ZM298.09 0.29L298.09 0.29Q295.33 0.29 293.99-0.93 292.65-2.15 292.58-4.96L292.58-4.96Q292.48-6.96 292.44-9.35 292.41-11.74 292.44-14.21 292.48-16.67 292.58-18.82L292.58-18.82Q292.65-21.66 294.03-22.86 295.41-24.07 298.14-24.07L298.14-24.07Q300.17-24.07 301.33-23.45 302.49-22.83 303.34-21.53L303.34-21.53 303.98-21.53 303.98-31.69 307.1-31.69 307.1 0 303.98 0 303.98-2.25 303.27-2.25Q302.44-1.03 301.28-0.37 300.12 0.29 298.09 0.29ZM299-2.37L299-2.37Q302.68-2.37 303.98-4.59L303.98-4.59 303.98-19.19Q302.71-21.41 299.02-21.41L299.02-21.41Q297.31-21.41 296.54-20.86 295.77-20.31 295.75-19.09L295.75-19.09Q295.6-15.43 295.63-11.66 295.65-7.89 295.75-4.69L295.75-4.69Q295.8-3.49 296.54-2.93 297.29-2.37 299-2.37ZM330.96-19.19L330.96 0 327.81 0 327.81-31.69 330.96-31.69 330.96-21.53 331.72-21.53Q332.57-22.83 333.71-23.45 334.84-24.07 336.82-24.07L336.82-24.07Q339.58-24.07 340.92-22.86 342.26-21.66 342.26-18.82L342.26-18.82 342.26 0 339.14 0 339.14-19.09Q339.14-20.31 338.37-20.86 337.6-21.41 335.89-21.41L335.89-21.41Q332.23-21.41 330.96-19.19L330.96-19.19ZM357.22 0.29L357.22 0.29Q353.19 0.29 351.47-0.98 349.75-2.25 349.63-5.13L349.63-5.13Q349.53-6.93 349.49-9.38 349.46-11.82 349.49-14.28 349.53-16.75 349.63-18.58L349.63-18.58Q349.75-21.53 351.52-22.8 353.29-24.07 357.22-24.07L357.22-24.07Q360.93-24.07 362.59-22.83 364.25-21.58 364.42-18.73L364.42-18.73Q364.47-17.87 364.52-15.75 364.57-13.62 364.37-11.23L364.37-11.23 352.68-11.23Q352.68-9.69 352.7-8.11 352.73-6.52 352.8-4.81L352.8-4.81Q352.82-3.47 353.83-2.95 354.83-2.44 357.12-2.44L357.12-2.44Q359.39-2.44 360.32-2.95 361.25-3.47 361.35-4.81L361.35-4.81Q361.42-6.15 361.35-8.47L361.35-8.47 364.37-8.47Q364.49-7.76 364.48-6.82 364.47-5.88 364.42-5.13L364.42-5.13Q364.25-2.25 362.68-0.98 361.1 0.29 357.22 0.29ZM352.68-13.82L352.68-13.82 361.39-13.82Q361.44-15.48 361.44-16.99 361.44-18.51 361.35-19.07L361.35-19.07Q361.25-20.29 360.3-20.81 359.34-21.34 357.22-21.34L357.22-21.34Q354.85-21.34 353.84-20.81 352.82-20.29 352.8-19.07L352.8-19.07Q352.73-17.65 352.69-16.36 352.65-15.06 352.68-13.82ZM374.91-19.19L374.91 0 371.76 0 371.76-23.75 374.91-23.75 374.91-21.53 375.59-21.53Q376.23-22.75 377.28-23.41 378.33-24.07 379.89-24.07L379.89-24.07Q382.23-24.07 383.37-22.84 384.5-21.61 384.5-18.58L384.5-18.58Q384.5-17.92 384.46-17.02 384.41-16.11 384.31-15.41L384.31-15.41 381.28-15.41Q381.33-15.65 381.34-16.26 381.35-16.87 381.37-17.48 381.38-18.09 381.38-18.31L381.38-18.31Q381.38-20.12 380.77-20.76 380.16-21.41 378.82-21.41L378.82-21.41Q375.96-21.41 374.91-19.19L374.91-19.19ZM398.75 0.29L398.75 0.29Q394.72 0.29 393-0.98 391.28-2.25 391.16-5.13L391.16-5.13Q391.06-6.93 391.03-9.38 390.99-11.82 391.03-14.28 391.06-16.75 391.16-18.58L391.16-18.58Q391.28-21.53 393.05-22.8 394.82-24.07 398.75-24.07L398.75-24.07Q402.46-24.07 404.12-22.83 405.78-21.58 405.95-18.73L405.95-18.73Q406-17.87 406.05-15.75 406.1-13.62 405.91-11.23L405.91-11.23 394.21-11.23Q394.21-9.69 394.24-8.11 394.26-6.52 394.33-4.81L394.33-4.81Q394.36-3.47 395.36-2.95 396.36-2.44 398.65-2.44L398.65-2.44Q400.92-2.44 401.85-2.95 402.78-3.47 402.88-4.81L402.88-4.81Q402.95-6.15 402.88-8.47L402.88-8.47 405.91-8.47Q406.03-7.76 406.02-6.82 406-5.88 405.95-5.13L405.95-5.13Q405.78-2.25 404.21-0.98 402.63 0.29 398.75 0.29ZM394.21-13.82L394.21-13.82 402.93-13.82Q402.98-15.48 402.98-16.99 402.98-18.51 402.88-19.07L402.88-19.07Q402.78-20.29 401.83-20.81 400.88-21.34 398.75-21.34L398.75-21.34Q396.38-21.34 395.37-20.81 394.36-20.29 394.33-19.07L394.33-19.07Q394.26-17.65 394.22-16.36 394.19-15.06 394.21-13.82Z" opacity="1" transform="matrix(1,0,0,1,0,0)" fill="#000000" class="slogan-text-1" data-fill-palette-color="secondary" id="text-1"></path></svg></g></svg></g></svg></g></svg></g></svg></g></svg></g></svg></g><path d="M191.165 85.744L191.165 22.397 393.57 22.397 393.57 224.803 191.165 224.803 191.165 161.456 194.264 161.456 194.264 221.704 390.471 221.704 390.471 25.496 194.264 25.496 194.264 85.744Z" fill="#000000" stroke="transparent" data-fill-palette-color="tertiary"></path></svg></g><defs></defs></svg><rect width="395.52" height="247.2" fill="none" stroke="none" visibility="hidden"></rect></g></svg></g></svg>